<svg width="300" height="300" viewBox="0 0 300 300" fill="none" xmlns="http://www.w3.org/2000/svg">
<circle cx="149.5" cy="150.5" r="142.5" fill="#DE200E"/>
<path d="M141.387 65.7032H241.668V89.1096H141.387V65.7032ZM193.476 129.557H218.7V218.255C218.7 231.396 216.034 238.377 207.011 242.278C198.192 245.973 185.273 246.179 166.816 246.179C165.996 238.993 162.715 228.316 159.433 221.13C171.123 221.746 184.658 221.746 188.349 221.746C192.245 221.54 193.476 220.719 193.476 217.639V129.557ZM132.569 122.577H247V145.983H132.569V122.577ZM86.6321 146.804L108.165 125.246L111.241 126.478V247H86.6321V146.804ZM109.806 98.7596L133.184 107.588C116.983 134.896 91.759 163.64 69.8161 181.709C66.3298 176.576 57.9218 165.488 53 160.561C73.9175 145.778 96.2706 121.961 109.806 98.7596ZM102.013 54L125.596 63.65C110.626 83.1553 88.4778 104.509 68.9958 118.06C65.7146 112.516 59.3573 102.866 55.2558 97.9383C72.277 86.8511 91.9641 68.3723 102.013 54Z" fill="white"/>
</svg>
